# xmcd CD database file
#
# Track frame offsets:
#	150
#	9576
#	39772
#	69522
#	103374
#	129498
#	145888
#	185010
#	207734
#	230588
#	245704
#	274696
#	313074
#
# Disc length: 4350 seconds
#
# Revision: 0
# Processed by: cddbd v1.5.2PL0 Copyright (c) Steve Scherf et al.
# Submitted via: CDex 1.51
#
DISCID=c610fc0d
DTITLE=Joshua Redman - Compass
DYEAR=2009
DGENRE=Jazz
TTITLE0=Uncharted
TTITLE1=Faraway
TTITLE2=Identity Thief
TTITLE3=Just Like You
TTITLE4=Hutchhiker's Guide
TTITLE5=Ghost
TTITLE6=Insomnomaniac
TTITLE7=Moonlight
TTITLE8=Un Peu Fou
TTITLE9=March
TTITLE10=Round Reuben
TTITLE11=Little Ditty
TTITLE12=Through the Valley
EXTD=YEAR: 2009
EXTT0=
EXTT1=
EXTT2=
EXTT3=
EXTT4=
EXTT5=
EXTT6=
EXTT7=
EXTT8=
EXTT9=
EXTT10=
EXTT11=
EXTT12=
PLAYORDER=
